<svg id="flower" xmlns="http://www.w3.org/2000/svg" viewBox="0 0 179.41 248.45">
  <defs>
    <style>
      .cls-1 {
        fill: #a6a056;
      }

      .cls-2 {
        fill: #b7c06f;
      }
    </style>
  </defs>
  <title>planta derecha</title>
  <path class="cls-1" d="M780.88,320.13c-1-5.64-.06-49.15,52.28-86.93,43.47-31.39,55.28-36.41,59.37-91.63s21.3-75.08,48.15-65.23c20.25,7.44,30.59,51.23.93,95.55s-48.84,52.9-42.94,84.16c7.55,40-6.71,60.4-32.61,51.65-35.45-12-38.92-17.22-57.33,14.66Z" transform="translate(-780.68 -73.92)"/>
  <path class="cls-2" d="M789.71,322.36a.84.84,0,0,1-.35-.07.93.93,0,0,1-.51-1.21c13.76-33.2,25.34-43.51,34.86-49.22,10.51-6.3,17.79-3.74,25.5-1,4.19,1.47,8.51,3,13.75,3.35,4.49.32,8-.67,10.65-3,5.06-4.46,6.18-13.27,6.59-20.46,1.46-25.41,14.29-47.43,26.69-68.73,15.94-27.37,31-53.22,24.42-85.94a.94.94,0,0,1,.73-1.1,1,1,0,0,1,1.1.73c6.72,33.42-9.22,60.78-24.64,87.25-12.29,21.11-25,42.93-26.44,67.9-.43,7.54-1.64,16.83-7.22,21.74-3,2.66-7,3.83-12,3.48-5.49-.38-9.94-1.94-14.23-3.45-7.61-2.67-14.18-5-23.93.87-9.25,5.55-20.55,15.63-34.1,48.33A.92.92,0,0,1,789.71,322.36Z" transform="translate(-780.68 -73.92)"/>
</svg>
