<svg id="flower" xmlns="http://www.w3.org/2000/svg" viewBox="0 0 250.1 276.2">
  <defs>
    <style>
      .cls-1 {
        fill: #a6a056;
      }

      .cls-2 {
        fill: #b7c06f;
      }
    </style>
  </defs>
  <title>planta izquierda</title>
  <path class="cls-1" d="M774.78,351.07c5.91-5.68-1.55-97.47-50.61-148.92-74.09-77.72-138-104.49-173-107-27.27-2-34.22,14-9.84,20s42,20.4,37.41,44.7,13.19,35.21,29.67,27.87S657.86,173.61,671,212s-3.34,77,34.49,91.56,42.77,67.57,42.77,67.57Z" transform="translate(-526.4 -94.97)"/>
  <path class="cls-2" d="M732.69,317a.94.94,0,0,1-.92-.81C720.37,231.12,670.69,178.37,631,149.1c-43-31.74-83.79-43.49-84.2-43.61a.93.93,0,0,1,.51-1.79c.41.12,41.52,12,84.79,43.9,40,29.49,90,82.63,101.49,168.32a.93.93,0,0,1-.8,1.05Z" transform="translate(-526.4 -94.97)"/>
</svg>
