<svg id="flower" xmlns="http://www.w3.org/2000/svg" viewBox="0 0 140.11 292.18">
  <defs>
    <style>
      .cls-1 {
        fill: #a6a056;
      }

      .cls-2 {
        fill: #b7c06f;
      }
    </style>
  </defs>
  <title>planta izquierda dos</title>
  <path class="cls-1" d="M780.68,340.27c3.16-2.55,25.07-46.32,25.07-91,0-55.1-31-79.21-68.1-112.06-24-21.27,20.3-74.14-8.46-86.78S658.32,85,666.72,112.79,704.2,135.53,712.09,165c3.78,14.11-22.69,32.7-7.89,56.37,13.5,21.59,57-1.24,53,61.81-2.86,44.67-9.55,55.46-9.55,55.46Z" transform="translate(-665.63 -48.34)"/>
  <path class="cls-2" d="M766.67,340.52a1,1,0,0,1-.37-.08.92.92,0,0,1-.49-1.22c.32-.73,31.35-73.3,14-120.65-10.61-28.94-31.59-49-51.89-68.35-8.61-8.23-16.74-16-24-24.33-22.13-25.34,7.18-60.73,7.48-61.09A.93.93,0,0,1,712.8,66c-.28.34-28.57,34.53-7.49,58.67,7.22,8.27,15.32,16,23.9,24.2,20.45,19.52,41.59,39.71,52.35,69.06,17.6,48.05-13.72,121.29-14,122A.92.92,0,0,1,766.67,340.52Z" transform="translate(-665.63 -48.34)"/>
</svg>
